# xmcd
#
# Track frame offsets:
#	150
#	19159
#	36507
#	51445
#	68856
#	86441
#	99052
#	118336
#	133660
#	150389
#	171632
#	187693
#
# Disc length: 2724 seconds
#
# Revision: 0
# Processed by: cddbd v1.5.1PL0 Copyright (c) Steve Scherf et al.
# Submitted via: EasyCDDAExtractor 5.0.4.1
#
DISCID=9e0aa20c
DTITLE=One - Meta Apo Xronia
DYEAR=1900
DGENRE=
TTITLE0=Kanenas De Mas Stamata
TTITLE1=Sto Mparaki
TTITLE2=Fylla Fthinoporina
TTITLE3=Nostalgos Tou Rock N'Roll
TTITLE4=Akou Tin Kardia
TTITLE5=Poname Osoi Agapame
TTITLE6=San Star Tou Cinema
TTITLE7=Den To Xanakano Se Autobianchi
TTITLE8=Mia Perpeteia
TTITLE9=Xameno Nisi
TTITLE10=Apopse Leo Na Min Koimithoume
TTITLE11=Kane Mia eyxi
EXTD=
EXTT0=
EXTT1=
EXTT2=
EXTT3=
EXTT4=
EXTT5=
EXTT6=
EXTT7=
EXTT8=
EXTT9=
EXTT10=
EXTT11=
PLAYORDER=
